<svg xmlns="http://www.w3.org/2000/svg" xmlns:xlink="http://www.w3.org/1999/xlink" width="1920" zoomAndPan="magnify" viewBox="0 0 1440 809.999993" height="1080" preserveAspectRatio="xMidYMid meet" version="1.0"><defs><g/></defs><g fill="#0e0f0f" fill-opacity="1"><g transform="translate(357.512683, 443.586091)"><g><path d="M 21.734375 -104.984375 C 17.921875 -104.984375 14.632812 -106.160156 11.875 -108.515625 C 9.125 -110.878906 7.75 -114.03125 7.75 -117.96875 C 7.75 -121.78125 9.125 -124.894531 11.875 -127.3125 C 14.632812 -129.726562 17.921875 -130.9375 21.734375 -130.9375 C 25.554688 -130.9375 28.84375 -129.726562 31.59375 -127.3125 C 34.34375 -124.894531 35.71875 -121.78125 35.71875 -117.96875 C 35.71875 -114.03125 34.34375 -110.878906 31.59375 -108.515625 C 28.84375 -106.160156 25.554688 -104.984375 21.734375 -104.984375 Z M 33.03125 0 L 10.28125 0 L 10.28125 -94.53125 L 33.03125 -94.53125 Z M 33.03125 0 "/></g></g></g><g fill="#0e0f0f" fill-opacity="1"><g transform="translate(400.98668, 443.586091)"><g><path d="M 33.03125 0 L 10.28125 0 L 10.28125 -94.53125 L 33.03125 -94.53125 L 33.03125 -82.578125 C 36.851562 -87.859375 40.84375 -91.507812 45 -93.53125 C 49.15625 -95.550781 53.757812 -96.5625 58.8125 -96.5625 C 67.457031 -96.5625 74 -95.015625 78.4375 -91.921875 C 82.875 -88.835938 86.160156 -85.101562 88.296875 -80.71875 C 90.210938 -76.5625 91.335938 -72.320312 91.671875 -68 C 92.003906 -63.675781 92.171875 -59.15625 92.171875 -54.4375 L 92.171875 0 L 69.59375 0 L 69.59375 -54.765625 C 69.59375 -59.597656 69.195312 -63.5 68.40625 -66.46875 C 67.625 -69.445312 66.445312 -71.835938 64.875 -73.640625 C 62.175781 -76.453125 58.1875 -77.859375 52.90625 -77.859375 C 46.507812 -77.859375 41.738281 -75.945312 38.59375 -72.125 C 36.675781 -69.875 35.269531 -66.894531 34.375 -63.1875 C 33.476562 -59.476562 33.03125 -54.484375 33.03125 -48.203125 Z M 33.03125 0 "/></g></g></g><g fill="#0e0f0f" fill-opacity="1"><g transform="translate(502.931526, 443.586091)"><g><path d="M 58.640625 0 L 39.9375 0 C 32.96875 0 27.546875 -1.628906 23.671875 -4.890625 C 19.796875 -8.148438 17.859375 -13.429688 17.859375 -20.734375 L 17.859375 -76.34375 L 3.875 -76.34375 L 3.875 -94.53125 L 17.859375 -94.53125 L 17.859375 -128.578125 L 40.609375 -128.578125 L 40.609375 -94.53125 L 58.8125 -94.53125 L 58.8125 -76.34375 L 40.609375 -76.34375 L 40.609375 -27.640625 C 40.609375 -25.160156 41.03125 -23.078125 41.875 -21.390625 C 42.71875 -19.710938 44.878906 -18.875 48.359375 -18.875 L 58.640625 -18.875 Z M 58.640625 0 "/></g></g></g><g fill="#0e0f0f" fill-opacity="1"><g transform="translate(567.468499, 443.586091)"><g><path d="M 33.03125 0 L 10.28125 0 L 10.28125 -94.53125 L 33.03125 -94.53125 L 33.03125 -83.25 C 36.625 -88.1875 40.640625 -91.640625 45.078125 -93.609375 C 49.515625 -95.578125 54.484375 -96.5625 59.984375 -96.5625 L 62.6875 -96.5625 L 62.6875 -74.65625 L 57.46875 -74.65625 C 53.644531 -74.65625 50.359375 -74.148438 47.609375 -73.140625 C 44.859375 -72.128906 42.523438 -70.722656 40.609375 -68.921875 C 38.140625 -66.453125 36.257812 -63.222656 34.96875 -59.234375 C 33.675781 -55.242188 33.03125 -50.101562 33.03125 -43.8125 Z M 33.03125 0 "/></g></g></g><g fill="#0e0f0f" fill-opacity="1"><g transform="translate(633.353528, 443.586091)"><g><path d="M 54.59375 1.859375 C 44.9375 1.859375 36.484375 -0.242188 29.234375 -4.453125 C 21.992188 -8.671875 16.378906 -14.429688 12.390625 -21.734375 C 8.398438 -29.035156 6.40625 -37.347656 6.40625 -46.671875 C 6.40625 -52.859375 7.359375 -58.925781 9.265625 -64.875 C 11.179688 -70.832031 14.101562 -76.195312 18.03125 -80.96875 C 21.957031 -85.75 26.898438 -89.539062 32.859375 -92.34375 C 38.816406 -95.15625 45.835938 -96.5625 53.921875 -96.5625 C 59.992188 -96.5625 65.863281 -95.601562 71.53125 -93.6875 C 77.207031 -91.78125 82.289062 -88.832031 86.78125 -84.84375 C 91.28125 -80.851562 94.847656 -75.769531 97.484375 -69.59375 C 100.128906 -63.414062 101.453125 -56.054688 101.453125 -47.515625 L 101.453125 -42.640625 L 30 -42.640625 C 30.21875 -40.609375 30.664062 -38.609375 31.34375 -36.640625 C 32.019531 -34.679688 32.75 -32.972656 33.53125 -31.515625 C 35.78125 -27.128906 38.785156 -23.726562 42.546875 -21.3125 C 46.316406 -18.894531 50.613281 -17.6875 55.4375 -17.6875 C 60.832031 -17.6875 65.351562 -19.09375 69 -21.90625 C 72.65625 -24.71875 75.210938 -28.03125 76.671875 -31.84375 L 99.9375 -31.84375 C 98.132812 -25.78125 95.265625 -20.191406 91.328125 -15.078125 C 87.398438 -9.972656 82.398438 -5.875 76.328125 -2.78125 C 70.265625 0.3125 63.019531 1.859375 54.59375 1.859375 Z M 31 -59.65625 L 78.1875 -59.65625 C 78.070312 -60.894531 77.757812 -62.300781 77.25 -63.875 C 76.75 -65.445312 75.882812 -66.960938 74.65625 -68.421875 C 72.519531 -71.785156 69.679688 -74.3125 66.140625 -76 C 62.597656 -77.6875 58.75 -78.53125 54.59375 -78.53125 C 50.4375 -78.53125 46.644531 -77.6875 43.21875 -76 C 39.789062 -74.3125 36.957031 -71.785156 34.71875 -68.421875 C 33.476562 -66.960938 32.601562 -65.445312 32.09375 -63.875 C 31.59375 -62.300781 31.226562 -60.894531 31 -59.65625 Z M 31 -59.65625 "/></g></g></g><g fill="#0e0f0f" fill-opacity="1"><g transform="translate(741.196006, 443.586091)"><g><path d="M 59.984375 -96.390625 C 68.304688 -96.390625 75.582031 -94.3125 81.8125 -90.15625 C 88.050781 -86 92.910156 -80.210938 96.390625 -72.796875 C 99.867188 -65.378906 101.609375 -56.84375 101.609375 -47.1875 C 101.609375 -37.519531 99.867188 -28.976562 96.390625 -21.5625 C 92.910156 -14.15625 88.050781 -8.375 81.8125 -4.21875 C 75.582031 -0.0625 68.304688 2.015625 59.984375 2.015625 C 54.484375 2.015625 49.597656 1.035156 45.328125 -0.921875 C 41.054688 -2.890625 37.015625 -6.570312 33.203125 -11.96875 L 33.203125 34.046875 L 10.453125 34.046875 L 10.453125 -94.53125 L 33.203125 -94.53125 L 33.203125 -82.578125 C 37.015625 -87.859375 41.054688 -91.476562 45.328125 -93.4375 C 49.597656 -95.40625 54.484375 -96.390625 59.984375 -96.390625 Z M 54.765625 -76.84375 C 47.578125 -76.84375 41.707031 -74.085938 37.15625 -68.578125 C 32.601562 -63.078125 30.328125 -55.945312 30.328125 -47.1875 C 30.328125 -38.425781 32.601562 -31.289062 37.15625 -25.78125 C 41.707031 -20.28125 47.578125 -17.53125 54.765625 -17.53125 C 62.066406 -17.53125 67.878906 -20.335938 72.203125 -25.953125 C 76.535156 -31.566406 78.703125 -38.644531 78.703125 -47.1875 C 78.703125 -55.832031 76.535156 -62.9375 72.203125 -68.5 C 67.878906 -74.0625 62.066406 -76.84375 54.765625 -76.84375 Z M 54.765625 -76.84375 "/></g></g></g><g fill="#0e0f0f" fill-opacity="1"><g transform="translate(849.54397, 443.586091)"><g><path d="M 21.734375 -104.984375 C 17.921875 -104.984375 14.632812 -106.160156 11.875 -108.515625 C 9.125 -110.878906 7.75 -114.03125 7.75 -117.96875 C 7.75 -121.78125 9.125 -124.894531 11.875 -127.3125 C 14.632812 -129.726562 17.921875 -130.9375 21.734375 -130.9375 C 25.554688 -130.9375 28.84375 -129.726562 31.59375 -127.3125 C 34.34375 -124.894531 35.71875 -121.78125 35.71875 -117.96875 C 35.71875 -114.03125 34.34375 -110.878906 31.59375 -108.515625 C 28.84375 -106.160156 25.554688 -104.984375 21.734375 -104.984375 Z M 33.03125 0 L 10.28125 0 L 10.28125 -94.53125 L 33.03125 -94.53125 Z M 33.03125 0 "/></g></g></g><g fill="#0e0f0f" fill-opacity="1"><g transform="translate(893.017966, 443.586091)"><g><path d="M 48.359375 1.859375 C 40.160156 1.859375 32.914062 -0.21875 26.625 -4.375 C 20.332031 -8.53125 15.441406 -14.316406 11.953125 -21.734375 C 8.472656 -29.148438 6.734375 -37.691406 6.734375 -47.359375 C 6.734375 -57.015625 8.472656 -65.550781 11.953125 -72.96875 C 15.441406 -80.382812 20.332031 -86.171875 26.625 -90.328125 C 32.914062 -94.484375 40.160156 -96.5625 48.359375 -96.5625 C 53.984375 -96.5625 58.898438 -95.578125 63.109375 -93.609375 C 67.316406 -91.640625 71.332031 -87.960938 75.15625 -82.578125 L 75.15625 -128.578125 L 97.90625 -128.578125 L 97.90625 0 L 75.15625 0 L 75.15625 -11.96875 C 71.332031 -6.6875 67.316406 -3.0625 63.109375 -1.09375 C 58.898438 0.875 53.984375 1.859375 48.359375 1.859375 Z M 53.59375 -17.6875 C 60.894531 -17.6875 66.789062 -20.4375 71.28125 -25.9375 C 75.769531 -31.445312 78.015625 -38.585938 78.015625 -47.359375 C 78.015625 -56.117188 75.769531 -63.25 71.28125 -68.75 C 66.789062 -74.257812 60.894531 -77.015625 53.59375 -77.015625 C 46.394531 -77.015625 40.601562 -74.234375 36.21875 -68.671875 C 31.84375 -63.109375 29.65625 -56.003906 29.65625 -47.359375 C 29.65625 -38.816406 31.84375 -31.734375 36.21875 -26.109375 C 40.601562 -20.492188 46.394531 -17.6875 53.59375 -17.6875 Z M 53.59375 -17.6875 "/></g></g></g><g fill="#0e0f0f" fill-opacity="1"><g transform="translate(1001.365953, 443.586091)"><g><path d="M 54.59375 1.859375 C 44.9375 1.859375 36.484375 -0.242188 29.234375 -4.453125 C 21.992188 -8.671875 16.378906 -14.429688 12.390625 -21.734375 C 8.398438 -29.035156 6.40625 -37.347656 6.40625 -46.671875 C 6.40625 -52.859375 7.359375 -58.925781 9.265625 -64.875 C 11.179688 -70.832031 14.101562 -76.195312 18.03125 -80.96875 C 21.957031 -85.75 26.898438 -89.539062 32.859375 -92.34375 C 38.816406 -95.15625 45.835938 -96.5625 53.921875 -96.5625 C 59.992188 -96.5625 65.863281 -95.601562 71.53125 -93.6875 C 77.207031 -91.78125 82.289062 -88.832031 86.78125 -84.84375 C 91.28125 -80.851562 94.847656 -75.769531 97.484375 -69.59375 C 100.128906 -63.414062 101.453125 -56.054688 101.453125 -47.515625 L 101.453125 -42.640625 L 30 -42.640625 C 30.21875 -40.609375 30.664062 -38.609375 31.34375 -36.640625 C 32.019531 -34.679688 32.75 -32.972656 33.53125 -31.515625 C 35.78125 -27.128906 38.785156 -23.726562 42.546875 -21.3125 C 46.316406 -18.894531 50.613281 -17.6875 55.4375 -17.6875 C 60.832031 -17.6875 65.351562 -19.09375 69 -21.90625 C 72.65625 -24.71875 75.210938 -28.03125 76.671875 -31.84375 L 99.9375 -31.84375 C 98.132812 -25.78125 95.265625 -20.191406 91.328125 -15.078125 C 87.398438 -9.972656 82.398438 -5.875 76.328125 -2.78125 C 70.265625 0.3125 63.019531 1.859375 54.59375 1.859375 Z M 31 -59.65625 L 78.1875 -59.65625 C 78.070312 -60.894531 77.757812 -62.300781 77.25 -63.875 C 76.75 -65.445312 75.882812 -66.960938 74.65625 -68.421875 C 72.519531 -71.785156 69.679688 -74.3125 66.140625 -76 C 62.597656 -77.6875 58.75 -78.53125 54.59375 -78.53125 C 50.4375 -78.53125 46.644531 -77.6875 43.21875 -76 C 39.789062 -74.3125 36.957031 -71.785156 34.71875 -68.421875 C 33.476562 -66.960938 32.601562 -65.445312 32.09375 -63.875 C 31.59375 -62.300781 31.226562 -60.894531 31 -59.65625 Z M 31 -59.65625 "/></g></g></g></svg>